<svg viewBox="0 0 160 160" xmlns="http://www.w3.org/2000/svg">

<style>

:root{

    --foxcolor-fox: #FFA629;
}
 .foxhead, .foxbody, .tail {fill: var(--foxcolor-fox)
  }

@media (prefers-color-scheme: light) {
    #background{fill:#ffffff}
    .foxhead, .foxbody, .tail {fill:#D67D01}
}

.tail {
    transform-origin: 20% 100%;
    animation-name: swing;
    animation-duration: 3s;
    animation-iteration-count: infinite;
    animation-delay: 2s;
}
 @keyframes swing {
    0% { transform: rotate(0deg); }
    20% { transform: rotate(10deg); }
    35% { transform: rotate(25deg); }
    45% { transform: rotate(30deg); }
    55% { transform: rotate(15deg); }
    75% { transform: rotate(10deg); }
    100% { transform: rotate(0deg); }
 }

 #ear {
    transform-origin: 30% 80%;
    animation-name: littleswing;
    animation-duration: 3s;
    animation-iteration-count: 4;
    animation-delay: 2s;
}

@keyframes littleswing {
    20% { transform: rotate(5deg); }
}

.foxhead {
    transform-origin: 50% 40%;
    animation-name: headmove;
    animation-duration: 3s;
    animation-iteration-count: 6;
    animation-delay: 4s;
}

@keyframes headmove {
    20% { transform: rotate(-5deg); }
}

</style>

<g>
<rect width="160" height="160" fill="white"/>
<rect id="background"  width="160" height="160" fill="#444040"/>


<g id="fox">
<g class="foxbody">
<path id="body" d="M105.5 69H109.691L120.192 90.0333H110H109.5V90.5333V150.501H42.2279C43.8855 146.314 47.2384 139.934 51.463 132.532C55.9154 124.732 61.3186 115.826 66.6816 107.212C77.4076 89.9859 87.9648 73.9431 90.4156 70.2792L90.4161 70.2784L91.2677 69H99H105.5Z" 
 stroke="black"/>
<rect x="100" y="120" width="10" height="30" fill="black"/>
<rect x="90" y="140" width="10" height="10" fill="#8D8D8D"/>
<path d="M109.5 69.5L115 80.5L119.5 89.5H109L109.5 69.5Z" fill="white"/>
</g>

<g class="foxhead">
<path id="ear" d="M110 10V40H92L110 10Z" fill="black"/>
<path d="M111.16 40.6479L148.534 69.5H90.5005L90.5 11.5687L111.058 40.5414L111.101 40.6023L111.16 40.6479Z" stroke="black"/>
<path id="nose" d="M138.953 61.4297L149.424 69.4969H138.953V61.4297Z" fill="#0C0C0C"/>
<path id="eyeclosed" d="M121.413 53.9453C121.413 55.8516 118.132 57.3969 114.084 57.3969C110.036 57.3969 106.754 55.8516 106.754 53.9453C106.754 52.0391 110.036 55.4253 114.084 55.4253C118.132 55.4253 121.413 52.0391 121.413 53.9453Z" 
fill="black"/>
</g>

<path class="tail" d="M10.5 117.203V31.7875L40.5 81.2177V117.398V117.475V117.552V117.628V117.705V117.781V117.857V117.933V118.009V118.085V118.161V118.236V118.312V118.387V118.462V118.537V118.612V118.687V118.762V118.836V118.91V118.985V119.059V119.133V119.207V119.281V119.354V119.428V119.501V119.575V119.648V119.721V119.794V119.867V119.94V120.012V120.085V120.157V120.23V120.302V120.374V120.446V120.518V120.589V120.661V120.733V120.804V120.875V120.947V121.018V121.089V121.159V121.23V121.301V121.371V121.442V121.512V121.583V121.653V121.723V121.793V121.863V121.932V122.002V122.072V122.141V122.21V122.28V122.349V122.418V122.487V122.556V122.624V122.693V122.762V122.83V122.899V122.967V123.035V123.103V123.171V123.239V123.307V123.375V123.442V123.51V123.577V123.645V123.712V123.779V123.847V123.914V123.981V124.047V124.114V124.181V124.248V124.314V124.381V124.447V124.513V124.58V124.646V124.712V124.778V124.844V124.91V124.975V125.041V125.107V125.172V125.238V125.303V125.368V125.433V125.499V125.564V125.629V125.694V125.759V125.823V125.888V125.953V126.017V126.082V126.146V126.211V126.275V126.339V126.403V126.468V126.532V126.596V126.66V126.723V126.787V126.851V126.915V126.978V127.042V127.105V127.169V127.232V127.295V127.359V127.422V127.485V127.548V127.611V127.674V127.737V127.8V127.863V127.926V127.988V128.051V128.113V128.176V128.239V128.301V128.363V128.426V128.488V128.55V128.612V128.675V128.737V128.799V128.861V128.923V128.985V129.047V129.108V129.17V129.232V129.294V129.355V129.417V129.479V129.54V129.602V129.663V129.725V129.786V129.847V129.909V129.97V130.031V130.092V130.153V130.215V130.276V130.337V130.398V130.459V130.52V130.581V130.642V130.703V130.763V130.824V130.885V130.946V131.007V131.067V131.128V131.189V131.249V131.31V131.37V131.431V131.491V131.552V131.612V131.673V131.733V131.794V131.854V131.915V131.975V132.035V132.096V132.156V132.216V132.276V132.337V132.397V132.457V132.517V132.578V132.638V132.698V132.758V132.818V132.878V132.938V132.999V133.059V133.119V133.179V133.239V133.299V133.359V133.419V133.479V133.539V133.599V133.659V133.719V133.779V133.839V133.899V133.959V134.019V134.079V134.139V134.199V134.259V134.319V134.379V134.439V134.499V134.559V134.619V134.679V134.739V134.799V134.859V134.919V134.979V135.039V135.099V135.16V135.22V135.28V135.34V135.4V135.46V135.52V135.58V135.64V135.7V135.761V135.821V135.881V135.941V136.001V136.062V136.122V136.182V136.243V136.303V136.363V136.423V136.484V136.544V136.605V136.665V136.725V136.786V136.846V136.907V136.967V137.028V137.089V137.149V137.21V137.271V137.331V137.392V137.453V137.513V137.574V137.635V137.696V137.757V137.818V137.879V137.94V138.001V138.062V138.123V138.184V138.245V138.306V138.367V138.429V138.49V138.551V138.612V138.674V138.735V138.797V138.858V138.92V138.981V139.043V139.105V139.166V139.228V139.29V139.352V139.414V139.476V139.538V139.6V139.662V139.724V139.786V139.848V139.91V139.973V140.035V140.097V140.16V140.222V140.285V140.348V140.41V140.473V140.536V140.598V140.661V140.724V140.787V140.85V140.913V140.976V141.04V141.103V141.166V141.23V141.293V141.357V141.42V141.484V141.547V141.611V141.675V141.739V141.803V141.867V141.931V141.995V142.059V142.123V142.188V142.252V142.317V142.381V142.446V142.51V142.575V142.64V142.705V142.77V142.835V142.9V142.965V143.03V143.095V143.161V143.226V143.292V143.357V143.423V143.489V143.555V143.621V143.687V143.753V143.819V143.885V143.951V144.018V144.084V144.151V144.217V144.284V144.351V144.418V144.485V144.552V144.619V144.686V144.754V144.821V144.888V144.956V145.024V145.091V145.159V145.227V145.295V145.363V145.432V145.5V145.568V145.637V145.705V145.774V145.843V145.912V145.981V146.05V146.119V146.188V146.257V146.327V146.396V146.466V146.536V146.606V146.676V146.746V146.816V146.886V146.956V147.027V147.097V147.168V147.239V147.31V147.381V147.452V147.523V147.594V147.666V147.737V147.809V147.881V147.953V148.025V148.097V148.169V148.241V148.314V148.386V148.459V148.531V148.604V148.677V148.75V148.824V148.897V148.97V149.044V149.118V149.191V149.265V149.339V149.414V149.488V149.562V149.637V149.712V149.721L10.5 117.203Z"
  stroke="black"/>



<!-- <path d="M15 3.5C15 5.433 11.6421 7 7.5 7C3.35786 7 0 5.433 0 3.5C0 1.567 3.35786 0 7.5 0C11.6421 0 15 1.567 15 3.5Z" fill="black"/> -->

</g>
</g>



</svg>
